<svg xmlns="http://www.w3.org/2000/svg" xmlns:svg="http://www.w3.org/2000/svg" id="Capa_1" width="16" height="16" x="0" y="0" version="1.1" viewBox="0 0 16 16" xml:space="preserve"><metadata id="metadata43"/><g id="g6" transform="matrix(0.03279024,0,0,0.03281715,0,-0.00655525)" style="fill:#fff"><g id="g4" style="fill:#fff"><path id="path2" d="M 481.8,453 341.8,312.9 C 369.4,279.8 386,237.5 386,191.3 386,85.9 299.5,0.2 193.1,0.2 86.7,0.2 0,86 0,191.4 c 0,105.4 86.5,191.1 192.9,191.1 45.2,0 86.8,-15.5 119.8,-41.4 l 140.5,140.5 c 8.2,8.2 20.4,8.2 28.6,0 8.2,-8.2 8.2,-20.4 0,-28.6 z M 41,191.4 c 0,-82.8 68.2,-150.1 151.9,-150.1 83.7,0 151.9,67.3 151.9,150.1 0,82.8 -68.2,150.1 -151.9,150.1 C 109.2,341.5 41,274.1 41,191.4 Z" style="fill:#fff"/></g></g></svg>